# xmcd
#
# Track frame offsets:
#	182
#	13942
#	25990
#	41657
#	62660
#	73752
#	79767
#	91290
#	113270
#	128125
#	140150
#	150957
#	162662
#	175527
#	188657
#	201377
#
# Disc length: 2893
#
# Revision: 1
# Processed by: cddbd v1.5.1PL0 Copyright (c) Steve Scherf et al.
# Submitted via: ExactAudioCopy v0.90b4
# Normalized: r0:DSETVAR1,TDELIM( - )
#
DISCID=d40b4b10
DTITLE=Various Artist - 16 All Time Blues Hits - CD 1
DYEAR=1991
DGENRE=Blues
TTITLE0=King, B. B. - Paying The Cost T Be The Boss
TTITLE1=Hoowlin' Wolf - Spoonful
TTITLE2=Lightning Hopkins - Coffee For Mama
TTITLE3=Bloomfield, Mike - Cherry Red
TTITLE4=Hooker, John Lee - Bottle Up And Go
TTITLE5=Clapton, Eric - Choker
TTITLE6=Little Walter - As Long As I Have You
TTITLE7=Mayall, John - A Big Man
TTITLE8=Waters, Muddy - Baby Please Don't Go
TTITLE9=Watson, Johnny Guitar - Gangster Of Love
TTITLE10=Little Walter - Blue Midnight
TTITLE11=Beck, Jeff - I'm A Man
TTITLE12=James, Elmore - Baby What's Wrong
TTITLE13=Water, Muddy - Close To You
TTITLE14=Williamson, Sonny Boy - All My Love In Vain
TTITLE15=Winter, Johnny - Self Destruction Blues
EXTD=All Tim Music\nATM 071\n\n10 CD-Set Blues Sampler
EXTT0=
EXTT1=
EXTT2=
EXTT3=
EXTT4=
EXTT5=
EXTT6=
EXTT7=
EXTT8=
EXTT9=
EXTT10=
EXTT11=
EXTT12=
EXTT13=
EXTT14=
EXTT15=
PLAYORDER=
